<?xml version="1.0" encoding="utf-8"?>
<!-- Generator: Adobe Illustrator 16.0.0, SVG Export Plug-In . SVG Version: 6.00 Build 0)  -->
<!DOCTYPE svg PUBLIC "-//W3C//DTD SVG 1.1//EN" "http://www.w3.org/Graphics/SVG/1.1/DTD/svg11.dtd">
<svg version="1.1" id="Layer_2" xmlns="http://www.w3.org/2000/svg" xmlns:xlink="http://www.w3.org/1999/xlink" x="0px" y="0px"
	 width="277px" height="113px" viewBox="0 0 277 113" enable-background="new 0 0 277 113" xml:space="preserve">
<path fill-rule="evenodd" clip-rule="evenodd" fill="#F15858" d="M152.873,63.225c2.384-3.648,3.662-7.728,4.979-11.853
	c4.919-15.415,12.176-29.186,27.264-37.212c1.133-0.603,1.928-1.818,2.938-2.681c9.903-8.457,23.567-3.896,26.136,8.812
	c2.085,10.32-0.482,20.199-3.559,29.911c-1.348,4.257-3.244,8.379-5.27,12.371c-1.564,3.083-0.17,3.6,2.307,3.223
	c6.289-0.956,10.584-4.542,12.949-10.427c2.17-5.396,4.396-10.772,6.42-16.223c0.996-2.684,2.227-4.045,4.947-1.999
	c3.645,2.741,7.121,2.914,10.614-0.342c0.812-0.757,2.034-1.136,3.126-1.522c3.724-1.315,7.566-2.211,10.799,0.893
	c3.111,2.988,2.357,6.887,1.136,10.311c-2.511,7.04-5.665,13.85-8.157,20.895c-0.92,2.6-3.349,6.229-0.293,8.238
	c3.254,2.139,5.672-1.453,7.924-3.502c3.729-3.391,6.401-7.639,9.135-11.826c0.85-1.303,1.402-3.293,3.721-1.731
	c1.844,1.241,1.598,2.401,0.531,4.096c-3.2,5.085-6.539,10.042-10.881,14.244c-1.805,1.747-3.779,3.276-6.082,4.313
	c-4.277,1.93-8.865,3.049-12.766-0.13c-3.622-2.952-3.141-7.255-2.16-11.56c1.642-7.203,5.058-13.716,7.468-20.613
	c0.596-1.705,1.747-3.574,0.125-5.115c-1.771-1.683-3.788-0.582-5.539,0.356c-3.723,1.993-6.813,4.451-8.421,8.726
	c-3.156,8.396-6.741,16.633-10.127,24.943c-1.414,3.47-7.801,5.807-11.047,4.023c-1.674-0.922-0.441-1.986-0.105-2.91
	c0.963-2.652,2.057-5.256,3.061-7.893c0.093-0.242-0.082-0.586-0.215-1.354c-3.785,1.331-7.639,2.258-11.607,1.565
	c-2.228-0.389-2.816,1.326-3.779,2.604c-4.773,6.343-10.2,11.828-17.937,14.575c-12.874,4.57-23.062-1.33-25.497-14.763
	c-0.234-1.292,1.111-3.677-1.848-3.714C153.065,67.712,152.969,65.469,152.873,63.225z M178.41,31.777
	c-7.041,10.452-11.906,21.737-13.335,34.252c-0.618,5.422-1.078,11.318,4.733,14.65c4.168,2.391,10.018-0.146,15.559-6.148
	c5.75-6.232,5.687-6.184,0.637-12.87c-1.584-2.097-2.852-4.466-4.039-6.823C178.307,47.582,178.524,39.761,178.41,31.777z
	 M194.943,60.316c5.275-11.375,9.93-22.306,9.583-34.611c-0.097-3.42-1.042-6.765-5.013-7.701c-4.068-0.958-6.559,1.542-8.578,4.577
	C184.396,32.41,186.148,50.982,194.943,60.316z"/>
<path fill-rule="evenodd" clip-rule="evenodd" fill="#131313" d="M152.873,63.225c0.096,2.244,0.192,4.487,0.289,6.73
	c-4.519,6.709-11.046,10.918-18.144,14.32c-2.83,1.357-4.812,3.13-5.922,6.164c-1.709,4.674-3.794,9.21-7.112,13.031
	c-2.847,3.28-6.387,5.28-10.779,5.499c-4.082,0.204-7.721-0.84-9.596-4.825c-2.036-4.326-0.506-8.146,2.554-11.359
	c3.661-3.845,8.731-5.302,13.368-7.495c2.092-0.989,4.931-1.563,4.297-5.083c-11.767,4.445-15.053,3.503-17.646-5.209
	c-2.148,1.912-4.048,3.992-6.314,5.533c-3.767,2.562-8.003,3.599-12.256,1.307c-4.265-2.299-4.064-6.453-3.708-10.544
	c0.442-5.07,2.807-9.491,4.667-14.088c0.804-1.989,1.782-3.934,1.685-6.191c-0.109-2.531-1.825-4.264-3.753-4.84
	c-2.062-0.617-2.089,2.031-2.74,3.345c-5.015,10.107-10.189,20.124-16.986,29.176c-1.076,1.434-2.125,4.432-4.941,2.017
	c-1.153-0.989-1.888-1.978-0.451-3.655c7.965-9.296,13.092-20.307,18.537-31.125c1.191-2.367,1.583-4.219-0.083-6.787
	c-2.457-3.786-0.066-6.993,2.656-9.655c1.728-1.689,3.361-3.548,6.451-1.839c2.869,1.587,3.354,3.192,1.601,5.778
	c-1.963,2.895-1.384,5.03,1.726,6.803c1.854,1.057,3.451,2.615,5.033,4.087c3.507,3.262,4.665,7.038,2.628,11.664
	c-1.999,4.542-3.915,9.139-5.496,13.836c-0.636,1.891-1.489,4.646,0.698,5.951c2.345,1.4,3.998-0.938,5.366-2.486
	c6.555-7.424,11.263-15.94,14.55-25.266c0.494-1.403,1.172-2.74,1.724-4.124c3.603-9.042,3.599-9.043,13.79-8.554
	c-1.933,7.406-5.566,14.058-8.116,21.102c-1.466,4.051-3.117,8.033-4.647,12.062c-0.814,2.144-2.078,4.864,0.213,6.274
	c2.278,1.404,4.367-0.855,5.988-2.484c4.38-4.396,7.683-9.553,10.046-15.285c2.461-5.968,4.826-11.976,7.238-17.964
	c1.289-3.199,8.526-5.716,11.184-3.725c1.658,1.242,0.119,2.663-0.383,3.899c-4.853,11.962-9.751,23.906-14.632,35.856
	c-0.422,1.035-0.813,2.082-1.481,3.797C142.325,75.323,147.572,69.241,152.873,63.225z M117.115,91.87
	c-3.951,0.749-6.87,2.355-9.313,4.789c-1.175,1.17-2.224,2.679-0.64,4.282c1.466,1.486,3.118,0.879,4.454-0.197
	C114.298,98.578,116.353,95.955,117.115,91.87z"/>
<path fill-rule="evenodd" clip-rule="evenodd" fill="#131313" d="M84.243,23.756c-0.815-0.088-1.629-0.192-2.446-0.261
	c-9.949-0.838-9.973-0.847-13.669,8.233C63.699,42.61,59.426,53.557,54.879,64.39c-3.916,9.329-9.552,17.128-19.883,20.22
	C22.837,88.25,11.705,82.171,8.668,70.24c-2.674-10.506,6.105-22.097,16.916-22.389c1.866-0.05,3.655,0.107,3.059,2.53
	c-0.549,2.229,2.124,5.988-1.995,6.512c-5.282,0.672-8.222,3.461-9.254,8.27c-0.792,3.689,0.8,6.893,3.82,9.125
	c4.184,3.093,8.691,2.947,13.137,0.609c5.97-3.139,8.969-8.804,11.449-14.613c5.134-12.025,9.919-24.198,14.88-36.297
	c0.929-2.266,1.292-3.496-2.076-4.189c-7.963-1.641-15.914-3.345-23.971-4.408c-2.235-0.295-4.662,0.206-6.902,0.749
	c-4.347,1.052-6.744,5.123-5.615,9.076c1.082,3.792,5.831,6.141,9.755,3.903c3.934-2.244,4.923-0.005,6.751,2.504
	c1.645,2.258,0.608,3.118-1.148,4.121c-5.831,3.328-11.759,3.538-17.506,0.052c-5.163-3.132-7.414-8.187-6.835-13.995
	C13.785,15.254,17.25,10.327,23.67,7.91c8.576-3.229,17.047-0.958,25.522,0.539c10.629,1.877,21.008,5.061,31.833,5.943
	c4.372,0.356,8.78,0.518,12.766-1.296c3.388-1.542,5.966-0.012,7.185,2.187c1.264,2.281-1.487,4.17-3.33,5.398
	C93.625,23.358,88.995,23.864,84.243,23.756z"/>
</svg>
